<?xml version="1.0" encoding="utf-8"?>

<!DOCTYPE svg PUBLIC "-//W3C//DTD SVG 1.1//EN" "http://www.w3.org/Graphics/SVG/1.1/DTD/svg11.dtd">
<svg version="1.1" id="Layer_1" xmlns="http://www.w3.org/2000/svg" xmlns:xlink="http://www.w3.org/1999/xlink" x="0px" y="0px"
	 viewBox="0 0 1662.045 1663.101" enable-background="new 0 0 1662.045 1663.101" xml:space="preserve">
<g>
	<path d="M925.802,57.799c-1.58,20.224-87.725,17.225-93.129,7.693c-0.238-0.421-0.366-1.094-0.335-1.577c0,0,0,0,0,0
		C864.018,59.656,895.215,57.656,925.802,57.799"/>
	<path d="M1084.688,78.81c45.447,37.519-52.483,56.57-110.615,61.401c-152.177,12.648-286.187-27.695-258.757-63.564
		c17.656-23.088,105.559-32.721,121.865-17.91c-0.046,0.649-0.108,1.513-0.154,2.162c-2.85,2.316-2.85,2.316-4.689,3.017
		c-29.741-0.47-37.376,9.233-29.757,16.397c31.576,29.687,197.515,21.742,199.499-9.552c0.196-3.094-1.426-5.653-3.923-8.542
		C1027.756,65.73,1056.642,71.3,1084.688,78.81"/>
	<path d="M1225.317,136.423l2.343,1.336c81.043,52.787-39.022,84.158-77.75,92.515c-259.493,55.997-654.97-20.753-604.514-117.318
		C593.348,21.18,937.406,12.192,977.746,60.132c-29.926-2.566-60.536-3.046-91.705-1.321c0.346-1.364,0.807-3.183,1.154-4.548
		C860.404,23.127,638.523,42.469,635.16,99.71c-5.005,85.178,436.741,121.395,525.186,43.058
		c10.79-9.557,17.812-24.647-10.008-42.266C1176.261,110.763,1201.293,122.773,1225.317,136.423"/>
	<g>
		<path d="M993.283,48.883c34.224,7.699,36.273,8.16,55.978,13.725c15.992,4.921,37.271,11.638,53.081,17.116
			c15.985,6.328,18.865,7.468,29.588,13.84c-27.054-9.691-55.019-17.509-83.77-23.335c-11.51-7.774-25.382-15.457-68.124-23.971
			L993.283,48.883"/>
		<path d="M1373.414,244.631l5.919,5.518c77.58,88.903-227.317,148.212-520.243,129.306
			c-341.056-22.013-550.778-126.001-448.805-222.536c8.239-7.8,24.753-20.19,46.391-31.572
			c21.049-10.412,49.314-23.92,70.847-33.289c36.999-14.298,40.867-15.793,69.916-24.834
			C419.787,122.611,454.82,190.89,538.8,232.531c243.552,120.764,815.265,78.137,780.356-25.329
			c-3.42-10.136-14.295-18.701-21.491-24.369C1320.873,200.764,1351.648,224.975,1373.414,244.631"/>
	</g>
	<g>
		<path d="M1225.3,136.414c-9.925-5.639-20.023-10.998-30.284-16.07l-10.026-5.333L1225.3,136.414"/>
		<path d="M1462.596,341.645l35.232,48.989c75.737,155.88-698.064,202.514-1075.281,64.803
			c-163.268-59.604-213.616-135.056-138.133-207.01l6.417-5.944c23.979-20.496,56.744-46.924,82.01-65.811
			C206.846,303.736,491.477,404.765,746.604,435.921c372.456,45.484,765.764-26.401,689.9-126.093
			c-0.142-0.187-0.358-0.415-0.512-0.592L1462.596,341.645"/>
	</g>
	<path d="M1581.197,554.744c40.295,211.38-1040.018,210.384-1359.924-1.254c-109.234-72.265-74.801-132.885-61.838-155.706
		c12.397-17.637,28.575-41.424,41.75-58.487l22.904-27.904C58.382,534.207,811.94,664.097,1283.945,593.784
		c86.219-12.844,283.718-51.484,255.592-132.688C1552.754,488.86,1572.58,525.228,1581.197,554.744"/>
	<path d="M1619.426,698.333l5.513,38.515C1609.832,983.775,294.213,922.192,94.817,665.225
		c-33.274-42.881-24.574-76.279-19.9-94.222l1.163-3.345c11.423-28.936,27.309-67.291,40.595-95.42
		c-117.47,301.76,1055.709,392.64,1407.295,245.818c87.272-36.445,83.452-69.986,81.82-84.309
		C1609.912,653.116,1616.366,678.768,1619.426,698.333"/>
	<path d="M1630.514,833.205c-1.214,28.794-2.95,67.214-5.878,95.884c-75.47,249.939-1414.46,160.419-1574.417-105.261
		c-15.058-25.01-15.511-45.449-15.876-61.872c2.536-19.877,5.192-46.49,8.556-66.244l8.351-41.829
		c-38.584,341.579,1355.773,399.943,1559.237,206.746c16.372-15.546,18.368-28.258,19.972-38.472L1630.514,833.205"/>
	<path d="M1583.027,1103.742l-2.694,7.335c-104.496,188.919-1458.943,172.137-1538.08-146.832c-0.24-0.966-0.414-2.286-0.592-3.266
		c-3.981-32.856-8.414-76.804-10.13-109.856c47.682,342.44,1443.938,376.863,1571.936,175.881
		c2.658-4.173,5.395-10.308,6.643-15.096C1602.556,1039.621,1592.585,1076.656,1583.027,1103.742"/>
	<path d="M1528.625,1222.547c-9.649,15.755-21.946,37.124-32.194,52.496c-155.2,181.125-1279.582,141.501-1400.695-128.15
		l-4.986-11.884c-9.702-26.594-22.44-62.158-30.543-89.281c120.189,303.201,1377.689,338.79,1487.444,140.803L1528.625,1222.547"/>
	<path d="M1377.486,1415.271c-178.992,141.436-1013.912,100.794-1184.998-101.934c-12.94-18.528-30.5-43.046-42.553-62.163
		l-16.282-27.597c175.984,255.687,1188.875,262.976,1314.092,116.919C1427.289,1363.498,1400.537,1394.873,1377.486,1415.271"/>
	<path d="M1256.177,1508.89l-31.38,18.753c-165.509,81.607-698.172,71.674-895.309-73.082l-6.913-5.629
		c-22.8-20.199-52.664-47.772-74.144-69.369c214.017,198.318,927.178,189.715,1065.121,89.629
		C1296.456,1481.269,1273.965,1497.859,1256.177,1508.89"/>
	<path d="M1125.366,1575.323c-34.976,13.049-54.243,20.237-101.744,32.503c-152.185,31.159-374.514,13.441-506.153-40.336
		c-24.613-11.351-57.01-27.416-80.946-40.132l-30.824-18.44c197.151,112.169,601.226,115.25,740.898,57.615L1125.366,1575.323"/>
	<path d="M896.445,1628.841c-24.638,1.74-24.638,1.74-36.832,2.178c-23.275,0.578-23.275,0.578-34.857,0.487
		c-23.111-0.433-23.111-0.433-34.692-1.027c-23.606-1.476-24.057-1.504-36.2-2.677c-25.732-2.805-26.224-2.858-39.622-4.827
		c-28.919-4.671-30.048-4.853-45.702-8.086c-9.933-2.235-23.195-5.145-33.078-7.59c126.444,29.555,232.284,24.776,284.12,19.296
		C912.643,1627.281,903.398,1628.302,896.445,1628.841"/>
</g>
</svg>
